<?xml version="1.0" encoding="UTF-8"?>
<svg xmlns="http://www.w3.org/2000/svg" xmlns:xlink="http://www.w3.org/1999/xlink" width="192.76pt" height="192.76pt" viewBox="0 0 192.76 192.76" version="1.1">
<g id="surface1">
<path style=" stroke:none;fill-rule:evenodd;fill:rgb(100%,100%,100%);fill-opacity:1;" d="M 0 0.00390625 L 192.757813 0.00390625 L 192.757813 192.761719 L 0 192.761719 L 0 0.00390625 "/>
<path style=" stroke:none;fill-rule:evenodd;fill:rgb(13.699341%,12.199402%,12.5%);fill-opacity:1;" d="M 120.460938 17.78125 L 118.445313 136.363281 L 115.488281 13.074219 Z M 120.460938 17.78125 "/>
<path style=" stroke:none;fill-rule:evenodd;fill:rgb(13.699341%,12.199402%,12.5%);fill-opacity:1;" d="M 111.855469 11.863281 L 109.839844 136.363281 L 106.878906 7.292969 Z M 111.855469 11.863281 "/>
<path style=" stroke:none;fill-rule:evenodd;fill:rgb(13.699341%,12.199402%,12.5%);fill-opacity:1;" d="M 103.25 6.082031 L 101.101563 136.363281 L 98.277344 1.507813 Z M 103.25 6.082031 "/>
<path style=" stroke:none;fill-rule:evenodd;fill:rgb(13.699341%,12.199402%,12.5%);fill-opacity:1;" d="M 70.042969 54.617188 L 67.21875 136.363281 L 66.007813 51.125 Z M 70.042969 54.617188 "/>
<path style=" stroke:none;fill-rule:evenodd;fill:rgb(13.699341%,12.199402%,12.5%);fill-opacity:1;" d="M 62.917969 50.316406 L 59.957031 136.363281 L 58.882813 46.816406 Z M 62.917969 50.316406 "/>
<path style=" stroke:none;fill-rule:evenodd;fill:rgb(13.699341%,12.199402%,12.5%);fill-opacity:1;" d="M 55.925781 46.011719 L 52.5625 136.363281 L 51.757813 42.652344 Z M 55.925781 46.011719 "/>
<path style=" stroke:none;fill-rule:evenodd;fill:rgb(13.699341%,12.199402%,12.5%);fill-opacity:1;" d="M 163.351563 54.617188 L 163.082031 136.363281 L 159.183594 51.125 Z M 163.351563 54.617188 "/>
<path style=" stroke:none;fill-rule:evenodd;fill:rgb(13.699341%,12.199402%,12.5%);fill-opacity:1;" d="M 156.089844 50.316406 L 155.820313 136.363281 L 151.921875 46.816406 Z M 156.089844 50.316406 "/>
<path style=" stroke:none;fill-rule:evenodd;fill:rgb(13.699341%,12.199402%,12.5%);fill-opacity:1;" d="M 148.964844 46.011719 L 148.558594 136.363281 L 144.796875 42.652344 Z M 148.964844 46.011719 "/>
<path style=" stroke:none;fill-rule:evenodd;fill:rgb(92.89856%,10.998535%,14.099121%);fill-opacity:1;" d="M 72.867188 17.78125 L 74.746094 136.363281 L 77.839844 13.074219 Z M 72.867188 17.78125 "/>
<path style=" stroke:none;fill-rule:evenodd;fill:rgb(92.89856%,10.998535%,14.099121%);fill-opacity:1;" d="M 81.472656 11.863281 L 83.488281 136.363281 L 86.445313 7.292969 Z M 81.472656 11.863281 "/>
<path style=" stroke:none;fill-rule:evenodd;fill:rgb(92.89856%,10.998535%,14.099121%);fill-opacity:1;" d="M 90.078125 6.082031 L 92.226563 136.363281 L 95.050781 1.507813 Z M 90.078125 6.082031 "/>
<path style=" stroke:none;fill-rule:evenodd;fill:rgb(92.89856%,10.998535%,14.099121%);fill-opacity:1;" d="M 30.515625 54.617188 L 30.785156 136.363281 L 34.683594 51.125 Z M 30.515625 54.617188 "/>
<path style=" stroke:none;fill-rule:evenodd;fill:rgb(92.89856%,10.998535%,14.099121%);fill-opacity:1;" d="M 37.640625 50.316406 L 38.042969 136.363281 L 41.941406 46.816406 Z M 37.640625 50.316406 "/>
<path style=" stroke:none;fill-rule:evenodd;fill:rgb(92.89856%,10.998535%,14.099121%);fill-opacity:1;" d="M 44.902344 46.011719 L 45.304688 136.363281 L 49.070313 42.652344 Z M 44.902344 46.011719 "/>
<path style=" stroke:none;fill-rule:evenodd;fill:rgb(92.89856%,10.998535%,14.099121%);fill-opacity:1;" d="M 123.820313 54.617188 L 126.644531 136.363281 L 127.855469 51.125 Z M 123.820313 54.617188 "/>
<path style=" stroke:none;fill-rule:evenodd;fill:rgb(92.89856%,10.998535%,14.099121%);fill-opacity:1;" d="M 130.8125 50.316406 L 133.902344 136.363281 L 134.980469 46.816406 Z M 130.8125 50.316406 "/>
<path style=" stroke:none;fill-rule:evenodd;fill:rgb(92.89856%,10.998535%,14.099121%);fill-opacity:1;" d="M 137.9375 46.011719 L 141.164063 136.363281 L 142.105469 42.652344 Z M 137.9375 46.011719 "/>
<path style=" stroke:none;fill-rule:evenodd;fill:rgb(92.89856%,10.998535%,14.099121%);fill-opacity:1;" d="M 74.792969 181.816406 C 74.792969 182.097656 74.84375 182.273438 74.703125 182.410156 C 74.703125 182.554688 74.511719 182.523438 74.371094 182.523438 L 71.96875 182.523438 L 71.96875 180.121094 L 74.371094 180.121094 C 74.511719 180.121094 74.71875 180.136719 74.71875 180.277344 C 74.859375 180.417969 74.792969 180.546875 74.792969 180.828125 Z M 74.792969 186.617188 C 74.652344 186.761719 74.511719 186.761719 74.371094 186.761719 L 71.96875 186.761719 L 71.96875 184.21875 L 74.371094 184.21875 C 74.511719 184.21875 74.652344 184.21875 74.792969 184.359375 Z M 75.5 182.808594 C 75.640625 182.523438 75.78125 182.097656 75.78125 181.675781 L 75.78125 180.402344 C 75.78125 179.695313 75.640625 179.273438 75.5 178.988281 C 75.359375 178.566406 75.078125 178.425781 74.792969 178.425781 L 70.980469 178.425781 L 70.980469 188.597656 L 74.511719 188.597656 C 74.933594 188.597656 75.21875 188.457031 75.5 188.175781 C 75.640625 187.75 75.78125 187.324219 75.78125 186.617188 L 75.78125 185.347656 C 75.78125 184.785156 75.78125 184.359375 75.640625 183.9375 C 75.5 183.652344 75.21875 183.511719 74.933594 183.371094 C 75.21875 183.371094 75.359375 183.089844 75.5 182.808594 "/>
<path style=" stroke:none;fill-rule:evenodd;fill:rgb(92.89856%,10.998535%,14.099121%);fill-opacity:1;" d="M 79.351563 178.425781 L 79.351563 186.761719 L 82.320313 186.761719 L 82.320313 178.425781 L 83.308594 178.425781 L 83.308594 186.195313 C 83.308594 187.1875 83.308594 187.75 83.164063 188.03125 C 83.023438 188.457031 82.742188 188.597656 82.320313 188.597656 L 79.492188 188.597656 C 79.070313 188.597656 78.785156 188.457031 78.644531 188.03125 C 78.503906 187.75 78.363281 187.1875 78.363281 186.195313 L 78.363281 178.425781 L 79.351563 178.425781 "/>
<path style=" stroke:none;fill-rule:evenodd;fill:rgb(92.89856%,10.998535%,14.099121%);fill-opacity:1;" d="M 86.171875 188.597656 L 86.171875 178.425781 L 87.300781 178.425781 L 87.300781 188.597656 L 86.171875 188.597656 "/>
<path style=" stroke:none;fill-rule:evenodd;fill:rgb(92.89856%,10.998535%,14.099121%);fill-opacity:1;" d="M 90.164063 188.597656 L 90.164063 178.425781 L 91.152344 178.425781 L 91.152344 186.761719 L 94.402344 186.761719 L 94.402344 188.597656 L 90.164063 188.597656 "/>
<path style=" stroke:none;fill-rule:evenodd;fill:rgb(92.89856%,10.998535%,14.099121%);fill-opacity:1;" d="M 100.371094 185.914063 C 100.089844 186.335938 99.851563 186.75 99.289063 186.75 C 99.148438 186.75 98.960938 186.761719 98.960938 186.761719 L 97.546875 186.761719 L 97.546875 180.261719 L 99.386719 180.261719 C 99.804688 180.261719 100.230469 180.546875 100.515625 181.109375 C 100.652344 181.675781 100.796875 182.378906 100.796875 183.371094 C 100.796875 184.640625 100.652344 185.488281 100.371094 185.914063 Z M 101.222656 179.839844 C 100.796875 178.851563 100.230469 178.425781 99.386719 178.425781 L 96.558594 178.425781 L 96.558594 188.597656 L 99.242188 188.597656 C 99.664063 188.597656 99.949219 188.457031 100.230469 188.457031 C 100.515625 188.316406 100.796875 188.03125 100.9375 187.75 C 101.222656 187.324219 101.503906 186.761719 101.644531 186.054688 C 101.78125 185.207031 101.925781 184.359375 101.925781 183.511719 C 101.925781 181.816406 101.644531 180.6875 101.222656 179.839844 "/>
<path style=" stroke:none;fill-rule:evenodd;fill:rgb(92.89856%,10.998535%,14.099121%);fill-opacity:1;" d="M 104.363281 188.597656 L 104.363281 178.425781 L 105.351563 178.425781 L 105.351563 188.597656 L 104.363281 188.597656 "/>
<path style=" stroke:none;fill-rule:evenodd;fill:rgb(92.89856%,10.998535%,14.099121%);fill-opacity:1;" d="M 108.355469 188.597656 L 108.355469 178.425781 L 108.925781 178.425781 L 112.597656 185.488281 L 112.597656 178.425781 L 113.445313 178.425781 L 113.445313 188.597656 L 112.738281 188.597656 L 109.203125 181.535156 L 109.203125 188.597656 L 108.355469 188.597656 "/>
<path style=" stroke:none;fill-rule:evenodd;fill:rgb(92.89856%,10.998535%,14.099121%);fill-opacity:1;" d="M 120.402344 180.261719 L 117.296875 180.261719 L 117.296875 186.761719 L 120.402344 186.761719 L 120.402344 184.5 L 118.707031 184.5 L 118.707031 182.664063 L 121.394531 182.664063 L 121.394531 186.195313 C 121.394531 187.1875 121.394531 187.75 121.25 188.03125 C 121.109375 188.457031 120.828125 188.597656 120.402344 188.597656 L 117.296875 188.597656 C 116.871094 188.597656 116.589844 188.457031 116.449219 188.03125 C 116.308594 187.75 116.164063 187.1875 116.164063 186.195313 L 116.164063 180.828125 C 116.164063 179.980469 116.308594 179.273438 116.449219 178.988281 C 116.589844 178.710938 116.871094 178.425781 117.296875 178.425781 L 120.402344 178.425781 C 120.683594 178.425781 121.109375 178.710938 121.25 178.988281 C 121.394531 179.273438 121.394531 179.980469 121.394531 180.828125 L 121.394531 180.972656 L 120.402344 181.394531 L 120.402344 180.261719 "/>
<path style=" stroke:none;fill-rule:nonzero;fill:rgb(13.699341%,12.199402%,12.5%);fill-opacity:1;" d="M 70.980469 175.488281 L 70.980469 142.011719 L 76.417969 142.011719 L 114.253906 165.175781 L 114.277344 142.011719 L 121.441406 142.011719 L 121.441406 175.488281 L 116.003906 175.488281 L 78.132813 152.269531 L 78.148438 175.488281 L 70.980469 175.488281 "/>
<path style=" stroke:none;fill-rule:nonzero;fill:rgb(13.699341%,12.199402%,12.5%);fill-opacity:1;" d="M 58.285156 148.011719 L 37.835938 148.011719 L 37.835938 182.257813 L 58.285156 182.257813 L 58.285156 174.898438 L 45.246094 174.898438 L 45.246094 169.148438 L 66.058594 169.148438 L 66.058594 180.660156 C 66.058594 183.730469 65.472656 185.824219 64.300781 186.933594 C 63.128906 188.042969 60.878906 188.597656 57.539063 188.597656 L 38.351563 188.597656 C 35.039063 188.597656 32.796875 188.042969 31.632813 186.933594 C 30.46875 185.824219 29.890625 183.730469 29.890625 180.660156 L 29.890625 149.9375 C 29.890625 146.894531 30.46875 144.8125 31.632813 143.691406 C 32.796875 142.570313 35.039063 142.011719 38.351563 142.011719 L 57.539063 142.011719 C 60.835938 142.011719 63.074219 142.558594 64.269531 143.65625 C 65.460938 144.757813 66.058594 146.742188 66.058594 149.617188 L 66.058594 150.375 L 58.285156 151.734375 L 58.285156 148.011719 "/>
<path style=" stroke:none;fill-rule:nonzero;fill:rgb(13.699341%,12.199402%,12.5%);fill-opacity:1;" d="M 156.382813 154.058594 C 156.382813 155.050781 156.128906 155.742188 155.621094 156.132813 C 155.113281 156.523438 154.167969 156.71875 152.789063 156.71875 L 134.875 156.71875 L 134.875 147.84375 L 152.789063 147.84375 C 154.167969 147.84375 155.113281 148.039063 155.621094 148.429688 C 156.128906 148.820313 156.382813 149.503906 156.382813 150.476563 Z M 162.238281 143.558594 C 161.011719 142.523438 159.039063 142.011719 156.316406 142.011719 L 127.019531 142.011719 L 127.019531 188.597656 L 134.875 188.597656 L 134.875 162.46875 L 156.316406 162.46875 C 159.039063 162.46875 161.011719 161.957031 162.238281 160.9375 C 163.457031 159.917969 164.070313 158.277344 164.070313 156.023438 L 164.070313 148.539063 C 164.070313 146.246094 163.457031 144.582031 162.238281 143.558594 "/>
</g>
</svg>
