<?xml version="1.0" encoding="utf-8"?>
<!-- Generator: Adobe Illustrator 22.1.0, SVG Export Plug-In . SVG Version: 6.00 Build 0)  -->
<svg version="1.1" id="Layer_1" xmlns="http://www.w3.org/2000/svg" xmlns:xlink="http://www.w3.org/1999/xlink" x="0px" y="0px"
	 viewBox="0 0 512 512" style="enable-background:new 0 0 512 512;" xml:space="preserve">
<g>
	<path d="M171.6,161.1v-35.2c0-5.8,4.7-10.5,10.5-10.5h35.2c5.8,0,10.5,4.7,10.5,10.5v35.2c0,5.8-4.7,10.5-10.5,10.5h-35.2
		C176.4,171.6,171.6,166.9,171.6,161.1z M294.7,171.6h35.2c5.8,0,10.5-4.7,10.5-10.5v-35.2c0-5.8-4.7-10.5-10.5-10.5h-35.2
		c-5.8,0-10.5,4.7-10.5,10.5v35.2C284.1,166.9,288.9,171.6,294.7,171.6z M182.2,256h35.2c5.8,0,10.5-4.7,10.5-10.5v-35.2
		c0-5.8-4.7-10.5-10.5-10.5h-35.2c-5.8,0-10.5,4.7-10.5,10.5v35.2C171.6,251.3,176.4,256,182.2,256z M294.7,256h35.2
		c5.8,0,10.5-4.7,10.5-10.5v-35.2c0-5.8-4.7-10.5-10.5-10.5h-35.2c-5.8,0-10.5,4.7-10.5,10.5v35.2C284.1,251.3,288.9,256,294.7,256z
		 M227.9,329.8v-35.2c0-5.8-4.7-10.5-10.5-10.5h-35.2c-5.8,0-10.5,4.7-10.5,10.5v35.2c0,5.8,4.7,10.5,10.5,10.5h35.2
		C223.1,340.4,227.9,335.6,227.9,329.8z M294.7,340.4h35.2c5.8,0,10.5-4.7,10.5-10.5v-35.2c0-5.8-4.7-10.5-10.5-10.5h-35.2
		c-5.8,0-10.5,4.7-10.5,10.5v35.2C284.1,335.6,288.9,340.4,294.7,340.4z M452.9,449.4V481H59.1v-31.6c0-5.8,4.7-10.5,10.5-10.5h17.1
		V52.1c0-11.7,9.4-21.1,21.1-21.1h296.2c11.7,0,21.1,9.4,21.1,21.1v386.7h17.1C448.1,438.8,452.9,443.6,452.9,449.4z M129,437.9
		h98.9V379c0-5.8,4.7-10.5,10.5-10.5h35.2c5.8,0,10.5,4.7,10.5,10.5v58.9H383V74.1l-253.6-0.9L129,437.9z"/>
</g>
</svg>
